<svg xmlns="http://www.w3.org/2000/svg" xmlns:xlink="http://www.w3.org/1999/xlink" version="1.1" x="0px" y="0px" viewBox="0 0 100 125" style="enable-background:new 0 0 100 100;" xml:space="preserve"><style type="text/css">
	.st0{fill:none;stroke:#000000;stroke-width:2;stroke-linecap:round;stroke-linejoin:round;stroke-miterlimit:10;}
</style><path d="M76.6,36.2c0.8-2.3,0.7-4.8-0.4-7c-1.1-2.2-2.9-3.8-5.2-4.6c-2.3-0.8-4.8-0.6-6.9,0.5c-4.2,2.1-6,7-4.5,11.2L33.2,49.4  c-2.5-3.8-7.5-5.3-11.7-3.2c-2.2,1.1-3.8,2.9-4.6,5.2c-0.8,2.3-0.6,4.8,0.5,6.9c1.1,2.2,3,3.8,5.3,4.6c-0.8,2.3-0.7,4.8,0.4,7  c1.1,2.2,2.9,3.8,5.2,4.6c0.9,0.3,1.9,0.5,2.9,0.5c1.4,0,2.8-0.3,4-1c2.2-1.1,3.8-2.9,4.6-5.2c0.7-2,0.6-4.1-0.1-6.1l26.3-13.1  c2.5,3.9,7.5,5.3,11.7,3.3c4.5-2.2,6.3-7.7,4.1-12.2C80.8,38.6,78.9,36.9,76.6,36.2z M76.9,51.1c-3.5,1.7-7.7,0.3-9.5-3.2l0-0.1  c-0.1-0.2-0.3-0.4-0.6-0.5c-0.3-0.1-0.5-0.1-0.8,0.1l-28,13.9c-0.2,0.1-0.4,0.4-0.5,0.6s-0.1,0.6,0.1,0.8c0.8,1.7,1,3.6,0.4,5.4  c-0.6,1.8-1.9,3.2-3.6,4.1c-1.7,0.8-3.6,1-5.4,0.4c-1.8-0.6-3.2-1.9-4.1-3.6c-1-2-1-4.3,0-6.3c0.1-0.3,0.1-0.6,0-0.9  c-0.1-0.3-0.4-0.5-0.7-0.5c-2.2-0.4-4.1-1.8-5.1-3.8c-0.8-1.7-1-3.6-0.4-5.4s1.9-3.2,3.6-4.1c1-0.5,2.1-0.7,3.1-0.7  c0.8,0,1.5,0.1,2.3,0.4c1.8,0.6,3.2,1.9,4.1,3.6c0.2,0.5,0.8,0.7,1.3,0.4l28-13.9c0.5-0.2,0.7-0.8,0.5-1.3c-1.7-3.5-0.3-7.7,3.2-9.5  c1.7-0.8,3.6-1,5.4-0.4c1.8,0.6,3.2,1.9,4.1,3.6c1,2,1,4.3,0,6.3c-0.1,0.3-0.1,0.6,0,0.9c0.1,0.3,0.4,0.5,0.7,0.5  c2.2,0.4,4.1,1.8,5.1,3.8C81.8,45.1,80.4,49.4,76.9,51.1z"/><text x="0" y="115" fill="#000000" font-size="5px" font-weight="bold" font-family="'Helvetica Neue', Helvetica, Arial-Unicode, Arial, Sans-serif">Created by Made Somewhere</text><text x="0" y="120" fill="#000000" font-size="5px" font-weight="bold" font-family="'Helvetica Neue', Helvetica, Arial-Unicode, Arial, Sans-serif">from the Noun Project</text></svg>