<svg xmlns="http://www.w3.org/2000/svg" xmlns:xlink="http://www.w3.org/1999/xlink" version="1.2" baseProfile="tiny" x="0px" y="0px" viewBox="0 0 100 100" xml:space="preserve"><g><path fill="#000000" d="M96.7,48.2L56.7,8.3C53,4.6,47,4.6,43.3,8.3L3.3,48.2c-1.8,1.8-2.8,4.2-2.8,6.7c0,2.5,1,4.9,2.8,6.7   c0.6,0.6,1.5,0.6,2.1,0l9-9V93c0,0.8,0.7,1.5,1.5,1.5h68c0.8,0,1.5-0.7,1.5-1.5V52.6l9,9c0.3,0.3,0.7,0.4,1.1,0.4s0.8-0.1,1.1-0.4   c1.8-1.8,2.8-4.2,2.8-6.7C99.4,52.4,98.4,50,96.7,48.2z M64.5,74.3h-3c-1.2,0-2.1-1-2.1-2.1c0-0.1,0-0.2,0-0.3   c-0.1-1.1-0.5-2.1-1.1-2.9c0-0.1-0.1-0.2-0.1-0.2l-8.9-12.2c-0.4-0.5-1.1-0.7-1.7-0.5c-0.6,0.2-1,0.8-1,1.4l0,2.7l-3.1-3.4   c-0.4-0.4-1.1-0.6-1.6-0.4c-0.6,0.2-0.9,0.8-1,1.4l-0.1,11.9c-1.9,2.8-3.3,6.9-2.5,12.4c-0.7,0.3-1.6,0.7-2.7,1.2V66.7   c0-8,6.5-14.5,14.5-14.5s14.5,6.5,14.5,14.5V74.3z M46.4,64.4c-0.7,0.4-1.7,1-2.7,1.9l0-4.8L46.4,64.4z M35.5,86.6   c2.8-1.5,4.8-2.1,4.8-2.1c0.7-0.2,1.2-1,1-1.7c-2.4-11.9,6.8-15.9,7.2-16c0.6-0.2,0.9-0.8,0.9-1.4l0-3.4l3.7,5.1h-1.5   c-0.8,0-1.5,0.7-1.5,1.5s0.7,1.5,1.5,1.5h2.6c1,0,1.9,0.7,2.1,1.7h-2c-0.8,0-1.5,0.7-1.5,1.5s0.7,1.5,1.5,1.5h2.7   c0.9,1.5,2.5,2.6,4.4,2.6h7.2v2.9c0,1.7-0.4,5.8-4.3,5.8h-8.6c-0.8,0-1.5,0.7-1.5,1.5s0.7,1.5,1.5,1.5h4c0,0.6-0.1,1.4-0.3,2.6   H35.5V86.6z M64.4,88.9C64.5,88.9,64.5,88.9,64.4,88.9l0.1,2.6h-1.9c0.2-1.1,0.2-1.9,0.2-2.6H64.4z M95.5,58.3L76.2,39.1   c-0.6-0.6-1.5-0.6-2.1,0c-0.6,0.6-0.6,1.5,0,2.1l8.4,8.4v41.9h-15v-3.2c2.7-1.2,4.2-4.2,4.2-8.1v-4.4c0-0.8-0.7-1.5-1.5-1.5h-2.8   v-7.6c0-9.6-7.9-17.5-17.5-17.5S32.5,57,32.5,66.7v24.8h-15V49.6l26.4-26.4c0.6-0.6,0.6-1.5,0-2.1c-0.6-0.6-1.5-0.6-2.1,0L4.5,58.3   c-0.6-1-1-2.2-1-3.4c0-1.7,0.7-3.4,1.9-4.6l39.9-39.9c1.2-1.2,2.9-1.9,4.6-1.9s3.4,0.7,4.6,1.9l39.9,39.9c1.2,1.2,1.9,2.9,1.9,4.6   C96.4,56.2,96.1,57.3,95.5,58.3z"/><path fill="#000000" d="M57.8,32.2c-2,0-3.8,1.3-4.4,3.2H50h-3.4c-0.6-1.8-2.4-3.2-4.4-3.2c-2.6,0-4.7,2.1-4.7,4.7   c0,1.2,0.5,2.3,1.3,3.2c-0.8,0.8-1.3,1.9-1.3,3.2c0,2.6,2.1,4.7,4.7,4.7c2,0,3.8-1.3,4.4-3.2H50h3.4c0.6,1.8,2.4,3.2,4.4,3.2   c2.6,0,4.7-2.1,4.7-4.7c0-1.2-0.5-2.3-1.3-3.2c0.8-0.8,1.3-1.9,1.3-3.2C62.5,34.3,60.4,32.2,57.8,32.2z M57.8,44.8   c-0.9,0-1.7-0.8-1.7-1.7c0-0.8-0.7-1.5-1.5-1.5H50h-4.7c-0.8,0-1.5,0.7-1.5,1.5c0,0.9-0.8,1.7-1.7,1.7s-1.7-0.8-1.7-1.7   c0-0.9,0.8-1.7,1.7-1.7c0.8,0,1.5-0.7,1.5-1.5s-0.7-1.5-1.5-1.5c-0.9,0-1.7-0.8-1.7-1.7c0-0.9,0.8-1.7,1.7-1.7s1.7,0.8,1.7,1.7   c0,0.8,0.7,1.5,1.5,1.5H50h4.7c0.8,0,1.5-0.7,1.5-1.5c0-0.9,0.8-1.7,1.7-1.7s1.7,0.8,1.7,1.7c0,0.9-0.8,1.7-1.7,1.7   c-0.8,0-1.5,0.7-1.5,1.5s0.7,1.5,1.5,1.5c0.9,0,1.7,0.8,1.7,1.7C59.5,44.1,58.8,44.8,57.8,44.8z"/></g></svg>
