<svg xmlns="http://www.w3.org/2000/svg" data-name="Layer 1" viewBox="0 0 100 100" x="0px" y="0px"><title>icon</title><path d="M50,90.10449A40.10449,40.10449,0,1,1,90.10449,50,40.15013,40.15013,0,0,1,50,90.10449Zm0-76.5A36.39551,36.39551,0,1,0,86.39551,50,36.437,36.437,0,0,0,50,13.60449Zm7.69564,58.40137a15.65565,15.65565,0,0,1-6.06641-1.47266,8.20627,8.20627,0,0,0-2.41016-.749,13.60422,13.60422,0,0,0-2.9668.65332A21.07427,21.07427,0,0,1,40.5599,71.499c-3.99707,0-6.58008-2.873-6.58008-7.31836,0-10.7959,10.54785-20.93652,16.90723-20.93652,9.11035,0,15.00488,15.27832,15.00488,20.56543C65.89193,69.09473,62.98079,72.00586,57.69564,72.00586ZM49.21908,67.001a9.5009,9.5009,0,0,1,3.457.9541,13.20108,13.20108,0,0,0,5.01953,1.26758c3.74414,0,5.41309-1.66895,5.41309-5.41309,0-4.87109-5.55078-17.78223-12.22168-17.78223-5.0625,0-14.124,9.15039-14.124,18.15332,0,1.69336.49316,4.53516,3.79688,4.53516a18.99084,18.99084,0,0,0,4.92676-.9541A14.64236,14.64236,0,0,1,49.21908,67.001ZM68.58919,56.60547c-3.75684,0-5.835-4.8125-5.835-8.13965,0-3.541,2.51074-7.28613,4.88477-7.28613,3.96582,0,5.95605,5.22656,5.95605,8.15234C73.59505,52.25586,72.262,56.60547,68.58919,56.60547ZM67.682,43.96387c-0.56055.19434-2.14453,2.19922-2.14453,4.502,0,2.36133,1.43652,5.35645,3.05176,5.35645,1.55176,0,2.22266-2.97363,2.22266-4.49023C70.81185,47.50781,69.49251,44.01758,67.682,43.96387Zm-9.10352.6543c-4.10645,0-8.29-4.23145-8.29-8.38477,0-3.77734,2.501-8.33887,5.60645-8.33887,5.54785,0,8.06055,7.92383,8.06055,10.33008C63.9554,41.30371,62.27279,44.61816,58.57845,44.61816ZM55.89486,30.67773c-0.77344,0-2.82324,2.52344-2.82324,5.55566,0,2.56543,2.98535,5.60156,5.50684,5.60156s2.59375-3.24121,2.59375-3.61035C61.1722,36.9502,59.40072,30.67773,55.89486,30.67773ZM31.28255,56.49609c-3.66992,0-5.002-4.34961-5.002-7.27344,0-2.7666,2.19238-8.15234,6.21094-8.15234,2.37988,0,4.99316,3.87012,4.99316,7.39551C37.4847,52.17969,34.77572,56.49609,31.28255,56.49609Zm1.16211-12.6416c-1.95605.05859-3.38086,3.7793-3.38086,5.36816,0,1.5166.66992,4.49023,2.21875,4.49023,1.72852,0,3.41895-3.00488,3.41895-5.24707C34.7015,46.28125,33.10384,44.084,32.44466,43.85449Zm8.91406,1.06836c-3.69336,0-5.376-3.31445-5.376-6.39355,0-2.40625,2.5127-10.33008,8.05957-10.33008,3.10645,0,5.60742,4.56152,5.60742,8.33887C49.64974,40.69141,45.46517,44.92285,41.35872,44.92285Zm2.68359-13.94043c-3.50488,0-5.27637,6.27246-5.27637,7.54687,0,0.36914.07227,3.61035,2.59277,3.61035,2.52246,0,5.50781-3.03613,5.50781-5.60156C46.86654,33.50586,44.81576,30.98242,44.04232,30.98242Z"/></svg>
